<?xml version="1.0" encoding="UTF-8"?><svg id="_レイヤー_2" xmlns="http://www.w3.org/2000/svg" width="101.7559" height="99.66108" viewBox="0 0 101.7559 99.66108"><defs><style>.cls-1{fill:#fff;}</style></defs><g id="_レイヤー_1-2"><path class="cls-1" d="m36.24959,88.25825c-.41065-.16152-.20286-.85913.04293-1.35389.24403-.48631,2.78167-7.29727,2.78167-7.29727h-2.66308l-.29559.82993c-.24227-.44338-.74231-.97596-1.7114-1.20099-1.53423-.3489-4.47073.57551-6.1941,4.14594-1.72161,3.56356-.03941,5.61859,1.56185,5.74052,1.59792.12369,2.95022-.49475,3.89522-1.52051-.04117.69586.36948,1.52051,1.3523,1.56009.98265.04117,2.30064-.28872,3.44656-1.84547l-.37458-.45182c-.57375.86248-1.43799,1.55851-1.84178,1.39347m-2.17361-2.33495c-.48965,1.22668-1.72337,2.41923-2.9914,2.58233-1.27665.16679-1.51892-.81779-.98968-2.3763.5361-1.55833,1.6873-3.93797,2.2183-4.83845.53082-.90541,1.14592-1.68378,2.04974-1.47933.59627.13407,1.16668.85403,1.48796,1.33172-.58237,1.60302-1.46051,3.98618-1.77492,4.78004"/><path class="cls-1" d="m91.86592,88.42328c-.16152-.12545-.24386-.48983.04135-1.1461.29031-.65645,1.19237-2.87457,1.89175-4.38839.69744-1.5154.36596-3.03433-1.39699-3.36246-1.72847-.32127-3.8866,1.2492-4.78866,2.12206.275-1.16158-.11683-1.85744-1.55323-2.12206-1.7612-.32638-3.9758,1.31096-4.83845,2.17009,0,0,.65645-1.88489-1.02223-2.25419-1.79902-.39359-3.12036,1.23196-3.81798,2.01192l.41241.41241c.65803-.86424,1.88664-1.72337,2.17009-1.52068.29048.20621.08076.73896-.36931,1.88489-.45024,1.1512-2.62719,6.85054-2.62719,6.85054h2.54467s1.6873-5.32986,3.03767-6.88996c1.3523-1.55675,3.15819-2.13402,3.64784-1.92957.49317.20621.03431,1.26116-.33341,2.16657-.36931.89872-2.18205,5.70797-2.54626,6.65296h2.5394c.25952-.59117,1.34368-3.64784,2.20282-5.8591.30403-.40555.67686-.85561.82993-1.03085,1.35213-1.55675,3.15801-2.13402,3.65118-1.92957.49141.20621.1631,1.19237-.20621,2.09443-.36772.90382-1.18727,2.5825-1.55675,3.5275-.37282.93989-1.06868,2.74402.53258,3.31953,1.59634.57903,2.99315-.49475,3.81446-1.47599l-.41065-.49141c-.65803.90048-1.68202,1.31113-1.84882,1.18744"/><path class="cls-1" d="m60.4693,71.24115c-.27834-.93285-2.10816-1.19589-3.08253-.11859-1.30409,1.44503-1.50502,4.35408-1.8694,11.14955-.30913,5.74386-1.19747,9.47228-3.85897,12.75416-2.66502,3.27994-5.90379,4.59266-9.34877,4.63401-3.44498.04117-5.66838-1.50696-5.74228-2.90888-.05665-1.12199.81796-1.55851,1.59968-1.39699-.90382,1.92606,1.18727,3.40557,3.69077,3.64942,2.49998.24738,5.08583-.36931,7.50154-3.6116,2.42274-3.23877,2.8334-8.7715,3.08077-11.4381.24738-2.66326.69586-7.42254,1.87978-10.0858,1.19747-2.6666,2.83498-4.06008,5.16835-4.06008,2.34181,0,2.66836,1.63575,2.42257,2.66308-.24738,1.02927-1.1512,1.65475-1.88313,1.31623-.54631-.2509-.63744-1.09631.098-1.4021,0,0,.6202-.24227.34362-1.14434Z"/><path class="cls-1" d="m51.68249,63.63809c-1.91409-.10645-3.49495.60138-4.19767,2.4055l-8.79208,23.03772h2.73029s.97772-2.56192,2.27319-5.97769c.82131.57041,1.42778,3.42263,1.58596,4.28001.16996.94499.71134,2.01033,2.14599,2.01033s2.37454-.77837,2.85909-1.84354l-.37282-.32989c-.31969.81955-1.10141,1.02734-1.42954.94658-.32479-.08076-.61686-.20779-1.08258-2.70777-.46555-2.50509-1.8263-2.78871-3.09432-2.74912,1.58068-2.29378,4.21807-2.85222,4.57542-2.6666.27148.14251.04135.414-.44496.70096-.49141.2852-.7972.78524-.69234,1.39171.10134.52748.62706,1.1753,1.65106,1.08592.96048-.08252,1.79902-1.0773,1.45717-2.37964-.33517-1.26292-1.60654-1.73885-3.6496-1.00006-1.29547.46396-2.41747,1.45189-3.06863,2.11502,2.47412-6.51009,5.51883-14.54456,5.81951-15.25749.48279-1.14944.96734-2.46057,1.72689-3.06195"/><path class="cls-1" d="m75.00876,79.77037h-2.62367s-2.08775,5.53765-2.54467,6.85037c-.45024,1.31272-.11859,2.50174.98282,2.66678,1.10809.16152,2.50509-.28696,3.53084-1.64261l-.37282-.36772c-.48965.61686-1.3523,1.18903-1.68044,1.10827-.32638-.08762-.36948-.57393-.16328-1.14962.20621-.57551,2.87123-7.46547,2.87123-7.46547"/><path class="cls-1" d="m74.76472,74.11572c-.90893,0-1.64261.73034-1.64261,1.63751,0,.90541.73369,1.64261,1.64261,1.64261.9003,0,1.63751-.7372,1.63751-1.64261,0-.90717-.7372-1.63751-1.63751-1.63751"/><path class="cls-1" d="m100.36418,79.77037h-2.62367s-2.09109,5.53765-2.54467,6.85037c-.45182,1.31272-.12193,2.50174.98282,2.66678,1.10651.16152,2.50333-.28696,3.5275-1.64261l-.37282-.36772c-.49141.61686-1.34878,1.18903-1.6771,1.10827-.32814-.08762-.37107-.57393-.16662-1.14962.21131-.57551,2.87457-7.46547,2.87457-7.46547"/><path class="cls-1" d="m100.12015,74.11572c-.90893,0-1.64595.73034-1.64595,1.63751,0,.90541.73703,1.64261,1.64595,1.64261.90048,0,1.63575-.7372,1.63575-1.64261,0-.90717-.73527-1.63751-1.63575-1.63751"/><path class="cls-1" d="m69.64617,63.63809c-1.91409-.10645-3.49477.60138-4.19415,2.4055l-8.81777,23.03772h2.7405s.96224-2.53605,2.24575-5.92103c.2509-.46907.50003-.86758.73703-1.14592,1.3472-1.55675,3.14781-2.13226,3.64274-1.92957.48789.20621.16996,1.19079-.19424,2.09619-.36262.89854-1.1753,2.57722-1.53599,3.52398-.36262.94165-1.04986,2.74912.55317,3.31953,1.60144.57569,2.98964-.48965,3.80408-1.47406l-.41065-.49141c-.65117.9003-1.67516,1.3143-1.84195,1.18885-.1631-.12703-.24386-.49141.03448-1.1512.28169-.65627,1.17179-2.87105,1.85902-4.38645s.354-3.03433-1.41406-3.36088c-1.56695-.29207-3.4777.96224-4.48797,1.85568,2.44157-6.41051,5.26124-13.82126,5.55155-14.50498.48279-1.14944.96558-2.46057,1.72847-3.06195"/><path class="cls-1" d="m35.41614,62.28421c-.73369-.76799-2.80067-.59962-7.25082,3.19408-2.4845-1.45875-5.95517-3.01708-11.87268-3.21467-10.74048-.35224-14.77646,5.44845-14.48791,9.5738.28362,4.12711,5.25262,8.04467,15.74731,6.42599-.76289,1.26468-3.5618,6.18565-4.58932,7.14613-2.54467-.44162-5.00173-.67879-6.70258-.69938-3.7096-.04979-6.30582.61686-6.25955,1.99133.04997,1.37289,3.27326,2.03954,6.11686,1.79902,1.30075-.10996,2.9226-.41575,4.68045-1.0773,1.72671.60648,3.60649,1.18217,5.98613,1.21999,5.57038.08762,8.91753-2.71991,9.91232-3.88501l-.45534-.59275c-.68213,1.03437-3.13919,3.13743-6.70609,2.48978-1.54479-.28696-3.35736-.65645-5.18735-1.00006.99655-.63568,2.01033-1.39858,3.00688-2.32474,2.29906-2.1356,4.02067-4.35214,5.37121-6.40541,6.21803-2.28181,9.67849-6.24741,11.40696-8.62195,2.43313-3.33501,2.08599-5.16483,1.28351-6.01886Zm-30.26777,25.85211c-4.22335-.04469-4.62187-1.01379-4.58069-1.48109.05331-.47434.85403-1.42444,4.64773-.90382,1.7714.24227,3.41929.82465,4.98959,1.46051-2.14599.87286-5.05662.92441-5.05662.92441Zm12.71123-10.38314c-7.66481,1.62203-15.24728-1.14944-14.8727-5.93986.37969-4.78866,7.32471-8.99301,13.93809-8.8607,4.02049.07724,7.73537,1.16668,10.79714,2.90553-.34872.30755-.61176.53592-.98634.88658-3.79546,3.49811-6.79882,7.62874-8.87618,11.00845Zm14.3315-8.50002c-.80917,1.20275-3.8178,4.85235-9.06339,7.04813,1.5103-2.3865,2.53764-4.50856,3.42439-5.95358.58237-.96048,1.43975-2.17185,2.54291-3.50515.84523.59962,1.20099.92265,1.89333,1.58244.39007.373.79562-.02234.41417-.42086-.39183-.42279-.71134-.78348-1.90371-1.65299,2.05661-2.43805,4.42604-4.61676,5.35045-3.78173,1.08592.9983-1.57047,5.07211-2.65816,6.68375Z"/><path class="cls-1" d="m59.61834,94.75568l-1.19956-1.99653-.71689.81905v1.17749h-.65155v-4.04982h.65155v2.03601l1.74277-2.03601h.78953l-1.38446,1.58651,1.52862,2.46332h-.76002Z"/><path class="cls-1" d="m64.04376,94.35776c-.29437.28088-.67375.43361-1.1307.43361s-.82523-.15274-1.1196-.43361c-.41873-.39653-.41255-.8449-.41255-1.62699,0-.77969-.00618-1.22794.41255-1.62699.29437-.28088.66265-.43487,1.1196-.43487s.83632.154,1.1307.43487c.41873.39905.40523.8473.40523,1.62699,0,.78209.0135,1.23046-.40523,1.62699Zm-.4939-2.88331c-.15021-.15513-.3843-.25376-.6368-.25376-.24998,0-.48154.09863-.63427.25376-.20697.21315-.2525.44219-.2525,1.25631,0,.81539.04553,1.04329.2525,1.25758.15274.15387.3843.25124.63427.25124.2525,0,.48658-.09737.6368-.25124.21063-.21428.25376-.44219.25376-1.25758,0-.81413-.04313-1.04317-.25376-1.25631Z"/><path class="cls-1" d="m67.67233,94.75568h-1.7231v-4.04982h1.65777c.79193,0,1.28961.42125,1.28961,1.1085,0,.43853-.28706.75258-.57273.85852.3288.12688.64172.42743.64172.94101,0,.74388-.53577,1.14179-1.29327,1.14179Zm-.11956-3.49917h-.95942v1.16021h.95942c.41886,0,.69721-.20445.69721-.58143,0-.3732-.27835-.57878-.69721-.57878Zm.06041,1.71692h-1.01983v1.23172h1.01983c.45203,0,.702-.26246.702-.61964,0-.35832-.24998-.61208-.702-.61208Z"/><path class="cls-1" d="m70.46079,94.75568v-4.04982h2.72944v.55065h-2.0828v1.18354h1.77607v.54813h-1.77607v1.21696h2.0828v.55053h-2.72944Z"/><path class="cls-1" d="m79.21804,94.79137c-.43487,0-.74034-.11212-1.03585-.39414l.43601-.40271c.14656.14164.28819.24506.59984.24506.48028,0,.77339-.27835.77339-.80921v-2.72452h.64916v2.77131c0,.83998-.63427,1.31421-1.42255,1.31421Z"/><path class="cls-1" d="m84.68536,94.75568l-.29059-.81299h-1.68375l-.29689.81299h-.68725l1.56052-4.04982h.52467l1.56557,4.04982h-.69229Zm-1.11834-3.13593l-.66757,1.79953h1.31168l-.64411-1.79953Z"/><path class="cls-1" d="m88.04907,93.16186h-.97304v1.59382h-.64537v-4.04982h1.61841c.83632,0,1.3697.52102,1.3697,1.22554,0,.70818-.53338,1.23046-1.3697,1.23046Zm-.03569-1.90535h-.93735v1.34738h.93735c.4495,0,.75624-.2438.75624-.67249,0-.42491-.30673-.67489-.75624-.67489Z"/><path class="cls-1" d="m92.7787,94.75568l-.29311-.81299h-1.68375l-.29311.81299h-.6909l1.56658-4.04982h.51736l1.56797,4.04982h-.69103Zm-1.11834-3.13593l-.66631,1.79953h1.31168l-.64537-1.79953Z"/><path class="cls-1" d="m97.08959,94.75568l-1.97194-2.85014v2.85014h-.6479v-4.04982h.59127l1.97307,2.84396v-2.84396h.6479v4.04982h-.5924Z"/><polygon class="cls-1" points="54.79055 20.96911 54.78834 20.97057 54.79529 20.96495 54.79055 20.96911"/><polygon class="cls-1" points="68.52018 21.49899 68.52459 21.49608 68.52327 21.49324 68.52018 21.49899"/><path class="cls-1" d="m84.02581,33.97043c-.17902-1.73808-3.31054-3.4451-5.36058-4.18202-1.76729-.63647-3.80247-1.09519-5.94493-1.34196,1.18128-1.7028,2.31207-3.85776,2.77834-6.58329.2652-1.55356-.70144-2.0685-2.08733-1.54446-1.26658.48166-3.9342,1.63608-6.9826,3.53583,1.44028-3.2448,1.90032-5.16146,3.80822-7.76883,2.78836-3.81005,3.14928-3.57004,2.71226-4.43135-.71267-1.40991-4.86798-1.51088-6.76624-1.30624-3.54088.3853-6.60317,1.79551-8.75714,3.34155.4388-2.37624-.01056-7.051-2.21655-9.82022-1.13742-1.42648-2.14252-1.48832-3.2475-.33816-1.51872,1.58336-4.53109,5.36022-7.092,11.70212C44.29993,7.24961,39.64133.27094,35.86857.00103c-1.32293-.09508-3.3631,6.43159-4.29496,12.29297,0,0-.61047-3.44316-4.5777-6.83412-2.99582-2.56119-7.49869-3.76496-6.17024-.40508,1.80555,4.56119,1.58547,12.42504,2.09121,15.93991-7.95592-3.20441-12.73206-.44385-14.24352,1.80841-.74115,1.10338,1.66474,2.73714,2.25541,3.21662,2.69678,2.18924,4.48649,5.28837,6.88511,8.71574,6.63522,9.48415,13.63923,8.42874,18.05951,7.95665-.24714.43274-.1428,2.64413.766,4.23188,1.90738,3.33676,2.95495,10.65096,2.37993,17.93584-.19551,2.49694-.61137,6.16966-1.90869,12.16037-.185.85635,2.22621,1.43158,2.42807.31185.38774-2.16235,2.64603-10.61424,2.00388-21.27793-.18677-3.10208.65269-7.42193,1.7078-7.03412,2.90002,1.06598,4.58607,1.60918,7.50907,1.66207,9.08554.16643,11.13405-3.4504,14.57871-6.63699,9.33137-.58866,12.01771-5.07873,14.83184-7.262,2.88631-2.23717,3.98926-1.51284,3.85581-2.81267Zm-11.06459-12.62225c1.18229-.4656,1.89116-.26397,1.5643,1.10778-.56498,2.38309-1.74234,4.35809-2.89886,5.88084-2.51742-.20222-5.14471-.11395-7.63462.3195.67576-1.19208,1.22354-2.24006,1.68304-3.18398,2.20026-1.50828,5.00415-3.2287,7.28613-4.12414Zm-1.47295-7.88192c-.8941.90926-2.38499,2.16657-4.77039,7.6669-.21318.49305-5.03418,12.68628-9.46008,13.89277,0,0-2.06187.34654-3.44184.99525.18894-.6035.28014-1.30682.28014-1.30682,5.35872-5.02942,8.05064-11.53014,9.24945-13.75019,2.96881-5.49553,6.87682-7.38257,8.03887-7.70255.21162-.05679.23946.07047.10385.20464Zm-5.98699-2.13818c2.26559-.3902,5.42048-.43952,6.43829.63378.06004.06442.16231.20177-.12246.3143-2.9166,1.14242-6.89576,2.65608-10.30459,10.38031-.97098,2.20321-4.00601,7.53271-7.72805,10.8616-.36984-1.82357-2.82827-3.01996-2.82827-3.01996,0,0,.08866-.30327.76178-.77831,2.03696-1.43959,1.53251-2.83944.02221-4.48522,0,0,.30513-2.01986,1.39037-4.64453,1.47393-3.55879,4.74247-7.95042,12.37072-9.26198Zm-16.44574,17.19905c-2.07155-.30673-3.99-1.17422-5.69686-2.2579-.64586-.41116-2.20753-1.3879-1.64498-2.62056.93783-2.05121,8.49279.43551,9.92703,2.82374,1.02333,1.70326-.24819,2.39993-2.5852,2.05472Zm2.02695.67113c-.6154.5075-.48423.38533-.93526.94393-.70905-.31992-1.67679-.69175-3.74301-.82126-4.11358-.14447-5.14996-.45779-5.14996-.45779,0,0,.27145-1.84349.25149-3.16378.66934,1.49871,6.58862,4.2576,9.57674,3.4989Zm1.32625-24.75412c.97439-.97124,1.52192-1.17634,2.36808.16258,2.27233,3.59756,1.89907,8.2923,1.49466,9.7973-1.49215,1.43837-4.29758,4.04256-5.5225,10.03149-2.0409-1.51378-4.62098-2.10568-5.90683-2.30625,0,0,.27125-2.36827.36667-5.13524,0,0,2.85506-8.2116,7.19991-12.54988ZM35.95107.8731c.65744-.55219,2.98211,1.60172,3.81609,2.72791,1.78437,2.41449,2.94279,5.41601,3.6204,8.24796,1.25333,5.25529.39525,10.2008.39525,10.2008-1.94231-.07567-3.05773.74051-3.03834,1.60027.06364,2.89421-.19741,5.04078-.19741,5.04078-2.70481-.85159-3.56735-2.83685-5.80329-2.85718-.80819-.86049-1.6354-2.58258-1.94557-4.14574-1.93841-9.76563,2.57829-20.33104,3.15287-20.8148Zm-11.64059,3.84721c3.47626,1.95978,5.49365,5.20531,6.30935,7.87852,1.02052,3.34097.38832,5.635,1.26401,9.57437.2817,1.26663.74013,2.68085,1.6214,4.14338,0,0-.89784.52985-1.27953,2.73137-2.62782-2.98134-3.99948-7.7736-4.73561-12.27323-.36137-2.20568-.5915-3.95169-1.30053-6.07389-.89556-2.67869-2.38655-4.47483-4.11226-5.79519-1.35578-1.03669.23263-1.31336,2.23317-.18533Zm-2.42719,1.21087c3.82735,2.626,4.26824,9.49147,5.64221,14.77932.68299,2.63053,1.44875,6.28495,4.57169,9.58859,0,0-.04213,3.09942.38288,4.71377-5.68544-2.59509-8.59516-7.21792-8.95141-16.3788-.17699-4.4985-.25599-10.11497-1.64537-12.70288Zm-11.90233,16.73817c.64556-.90128,2.2868-2.03894,5.53646-2.21468,3.55606-.19323,7.49329,1.63822,7.49329,1.63822.73287,6.54611,3.44407,11.64064,9.76041,14.15067,0,0,.62076,3.08968,2.10161,4.95379-5.39315-.94171-8.40093-5.5128-11.9116-8.75075-2.96266-2.73188-6.07778-6.18311-12.54417-8.53232-.91735-.3325-.81019-.72264-.43601-1.24495Zm21.66752,19.60978c-3.79064.00801-7.94984-1.92298-10.80626-4.96867-3.70023-3.94241-5.10382-9.16432-10.37407-12.46876,5.10861,1.54104,10.10503,6.6474,13.21966,9.63166,3.37223,3.22629,6.43761,6.72254,11.43038,7.46629,0,0-1.42538.33138-3.46971.33949Zm2.81555-15.15919c1.4678-.57212,3.01318,1.44733,4.88931,2.11387,4.63343,1.64143,6.63751.13978,10.4536,1.65374,3.00576,1.19252,3.77589,3.13305,2.98758,5.49856-4.07681,1.85426-8.60786,7.3303-15.79311,5.82286-3.15023-.66152-5.46996-13.9499-2.53738-15.08904Zm6.24414,38.99871c-.33897,3.31422-.87994,7.39518-1.83303,10.82562-.08379.30427-1.08288.22564-1.00162-.25725.15356-.8975,2.34775-10.98669,1.90117-18.13111-.31317-5.00876-.77965-8.55862-2.07777-11.27763-.6764-1.42043-1.32445-2.26533-1.00672-3.58306.51397.76526,2.03428,3.01626,5.03672,4.55975.40661.20832-.72787,2.31874-.92858,5.59521-.11204,1.82482.54796,6.04394-.09016,12.26848Zm16.47714-17.11095c-6.75991,2.17026-15.82728.06003-19.84661-5.8087,7.70249,1.0614,10.89675-3.55058,16.13949-6.04105,2.52777-1.20304,5.32071-1.47138,8.12806-1.28793,1.89287.12213,8.8104,1.38355,6.47367,3.83143-4.19041,4.39062-6.07229,7.75687-10.89462,9.30624Zm18.36976-9.25018c-1.68872,1.10282-5.02808,3.21667-9.28973,3.14204,3.74278-3.26353,3.84954-4.84063,2.53428-5.64586,2.52129-1.81904,8.01481-3.30251,13.21899-2.28257-2.09982.40307-4.66071,3.60984-6.46354,4.78639Zm7.39863-5.6917s-.00063-.00013-.00101.0017c-.04477.06474-.02528.01666-.00025.0012-.43735.29785-2.95724-.16467-5.00322-.14854-6.3223.05035-9.93607,2.75528-9.93607,2.75528-2.67925-1.46746-6.82073-1.93916-9.16194-1.65963,0,0,2.45008-1.62279,4.52528-5.17883,0,0,7.44781-2.13569,15.95454.9601,1.97851.72228,4.16147,2.4928,3.62265,3.26873Z"/></g></svg>